<?xml version="1.0" encoding="UTF-8"?>
<mxfile host="app.diagrams.net" modified="2024-03-27T14:00:00.000Z" agent="Mozilla/5.0" version="21.1.9" etag="your-etag" type="device">
  <diagram name="Page-1" id="context-diagram">
    <mxGraphModel dx="1222" dy="798" grid="1" gridSize="10" guides="1" tooltips="1" connect="1" arrows="1" fold="1" page="1" pageScale="1" pageWidth="827" pageHeight="1169" math="0" shadow="0">
      <root>
        <mxCell id="0" />
        <mxCell id="1" parent="0" />
        
        <!-- Система доставки заказов -->
        <mxCell id="system" value="Система доставки заказов" style="ellipse;whiteSpace=wrap;html=1;" vertex="1" parent="1">
          <mxGeometry x="320" y="240" width="200" height="120" as="geometry" />
        </mxCell>
        
        <!-- Внешние сущности -->
        <mxCell id="courier" value="Курьер" style="rounded=0;whiteSpace=wrap;html=1;" vertex="1" parent="1">
          <mxGeometry x="120" y="200" width="120" height="60" as="geometry" />
        </mxCell>
        
        <mxCell id="operator" value="Оператор" style="rounded=0;whiteSpace=wrap;html=1;" vertex="1" parent="1">
          <mxGeometry x="120" y="340" width="120" height="60" as="geometry" />
        </mxCell>
        
        <mxCell id="dispatcher" value="Диспетчер" style="rounded=0;whiteSpace=wrap;html=1;" vertex="1" parent="1">
          <mxGeometry x="600" y="200" width="120" height="60" as="geometry" />
        </mxCell>
        
        <mxCell id="accountant" value="Бухгалтер" style="rounded=0;whiteSpace=wrap;html=1;" vertex="1" parent="1">
          <mxGeometry x="600" y="340" width="120" height="60" as="geometry" />
        </mxCell>
        
        <!-- Потоки данных -->
        <mxCell id="flow1" value="Информация о заказах" style="endArrow=classic;html=1;rounded=0;" edge="1" parent="1" source="operator" target="system">
          <mxGeometry relative="1" as="geometry" />
        </mxCell>
        
        <mxCell id="flow2" value="Доступные заказы" style="endArrow=classic;html=1;rounded=0;" edge="1" parent="1" source="system" target="courier">
          <mxGeometry relative="1" as="geometry" />
        </mxCell>
        
        <mxCell id="flow3" value="Статус доставки" style="endArrow=classic;html=1;rounded=0;" edge="1" parent="1" source="courier" target="system">
          <mxGeometry relative="1" as="geometry" />
        </mxCell>
        
        <mxCell id="flow4" value="Данные о заказах" style="endArrow=classic;html=1;rounded=0;" edge="1" parent="1" source="system" target="accountant">
          <mxGeometry relative="1" as="geometry" />
        </mxCell>
        
        <mxCell id="flow5" value="Информация о курьерах" style="endArrow=classic;html=1;rounded=0;" edge="1" parent="1" source="system" target="dispatcher">
          <mxGeometry relative="1" as="geometry" />
        </mxCell>
        
        <mxCell id="flow6" value="Управляющие воздействия" style="endArrow=classic;html=1;rounded=0;" edge="1" parent="1" source="dispatcher" target="system">
          <mxGeometry relative="1" as="geometry" />
        </mxCell>
      </root>
    </mxGraphModel>
  </diagram>
</mxfile> 